<svg width="420" height="400" viewBox="0 0 420 400" fill="none" xmlns="http://www.w3.org/2000/svg">
<path d="M310 132.001L329.999 112L349.999 131.999L330.001 152L310 132.001Z" stroke="#E62892" stroke-width="5" stroke-linejoin="round"/>
<g opacity="0.5">
<path d="M330 261.001L359.999 231L389.998 260.999L360.001 291L330 261.001Z" stroke="#E62892" stroke-width="5" stroke-linejoin="round"/>
</g>
<path d="M16 246L25.9997 236L35.9994 246L26.0003 256L16 246Z" stroke="#E62892" stroke-width="5" stroke-linejoin="round"/>
<g opacity="0.3">
<path d="M70 96.0003L79.9997 86L89.9994 95.9997L80.0003 106L70 96.0003Z" stroke="#E62892" stroke-width="5" stroke-linejoin="round"/>
</g>
<g filter="url(#filter0_d_362_497)">
<circle cx="200" cy="196" r="100" fill="black"/>
<circle cx="200" cy="196" r="97.5" stroke="#E62892" stroke-width="5"/>
</g>
<path d="M191.859 218.233C192.698 218.166 193.563 218.416 194.267 218.99C195.67 220.144 195.826 222.097 194.631 223.447L191.289 227.227C190.094 228.577 188.049 228.747 186.64 227.593C185.232 226.443 185.072 224.488 186.266 223.136L189.618 219.351C190.211 218.671 191.028 218.297 191.859 218.233L191.859 218.233ZM184.533 212.227C185.365 212.158 186.227 212.41 186.934 212.99C188.343 214.144 188.502 216.09 187.306 217.44L183.955 221.235C182.758 222.585 180.716 222.737 179.306 221.585C177.903 220.441 177.744 218.486 178.942 217.136L182.286 213.339C182.884 212.669 183.693 212.287 184.533 212.227L184.533 212.227ZM176.264 207.28C177.095 207.22 177.957 207.472 178.656 208.044C180.049 209.186 180.232 211.102 179.069 212.463L176.629 215.226C175.432 216.579 173.396 216.739 171.984 215.585C170.566 214.431 170.409 212.478 171.605 211.128C172.421 210.219 173.213 209.311 174.021 208.394C174.622 207.723 175.432 207.349 176.264 207.28L176.264 207.28ZM169.497 203.028C170.036 203.044 170.528 203.22 170.907 203.532C171.921 204.365 172.033 206.105 170.781 207.541L169.291 209.22C168.024 210.661 166.194 210.846 165.172 210.013C164.158 209.183 164.046 207.419 165.323 205.976L166.789 204.311C167.59 203.41 168.603 203.005 169.497 203.028L169.497 203.028ZM253.628 161.195L232.859 172.814L214.19 166.433C210.825 165.279 207.618 164.913 204.748 167.363C204.106 167.911 203.759 168.203 202.99 168.876L198.879 167.684C196.686 166.875 194.341 166.683 192.399 167.575C187.122 170.018 177.404 174.555 176.596 174.935L146.124 161.142C144.354 160.338 143.468 163.186 144.823 163.797L175.953 177.89C176.366 178.079 176.848 178.079 177.267 177.89C177.267 177.89 188.23 172.776 193.72 170.217C195.264 169.5 196.675 170.118 197.998 170.499L200.302 171.162L196.404 174.492C194.208 176.363 193.759 177.881 193.33 180.201L191.375 190.759C191.192 191.736 191.262 192.653 191.636 193.446C192.001 194.232 192.675 194.828 193.394 195.156C194.843 195.806 196.403 195.629 197.765 195.11C201.133 193.827 203.199 192.086 204.601 190.163C205.932 188.336 206.687 186.438 207.69 184.559L208.578 183.895L209.055 187.932C209.426 191.055 210.417 193.345 213.047 194.687C219.709 198.094 231.329 202.407 238.291 205.842C238.655 206.024 238.932 206.344 238.965 207.056C239.068 209.115 238.023 210.528 236.512 211.62C235.782 212.146 234.816 212.193 233.58 211.832L213.38 205.966C211.433 205.401 210.561 208.217 212.501 208.776L230.86 214.102C231.25 215.897 230.632 217.019 229.244 217.852C227.77 218.745 225.221 219.118 222.18 218.309L207.809 214.485C205.855 213.968 205.047 216.807 207.001 217.328L218.355 220.336C217.775 222.007 215.59 224.173 211.446 223.158L202.624 221.005C200.676 220.548 199.93 223.351 201.869 223.851L207.058 225.112C205.689 227.134 204.135 227.579 202.053 227.571C200.253 227.571 198.098 227.037 195.921 226.511L196.942 225.357C199.2 222.799 198.876 218.921 196.223 216.754C194.899 215.661 193.229 215.196 191.612 215.325C191.437 215.332 191.262 215.385 191.087 215.417C191.087 213.676 190.368 211.952 188.894 210.745C187.572 209.663 185.9 209.194 184.284 209.318C183.77 209.353 183.262 209.477 182.771 209.638C182.573 208.197 181.866 206.815 180.632 205.798C179.301 204.713 177.639 204.248 176.013 204.372C175.554 204.408 175.103 204.508 174.658 204.637C174.515 203.363 173.961 202.164 172.883 201.285C171.647 200.279 170.079 199.942 168.558 200.163C167.843 200.27 167.139 200.506 166.483 200.852L141.765 193.468C139.997 192.943 139.308 195.806 140.87 196.271L163.831 203.126L162.992 204.073C160.814 206.538 160.727 210.226 163.197 212.25C164.513 213.333 166.201 213.624 167.817 213.295C167.855 214.982 168.586 216.655 170.012 217.821C171.484 219.03 173.37 219.441 175.152 219.158C175.144 220.899 175.873 222.624 177.347 223.831C178.821 225.037 180.705 225.45 182.48 225.166C182.48 226.9 183.359 228.38 185.727 229.984C188.167 231.642 191.628 231.237 193.712 229.014C196.255 229.603 199.123 230.496 202.046 230.505C205.05 230.512 208.186 229.244 210.127 225.863L210.697 226.008C216.248 227.367 220.24 224.352 221.281 221.106C224.584 221.655 228.402 221.803 230.872 220.343C232.806 219.213 233.961 217.166 233.971 214.892C235.445 215.059 236.869 214.862 237.969 214.197C240.687 212.565 242.294 209.633 241.999 206.746C241.856 205.359 241.12 203.938 239.688 203.229C239.432 203.105 239.142 202.976 238.871 202.845L259.032 196.258C260.891 195.656 259.798 192.914 258.057 193.48L234.958 201.045C228.034 197.992 219.583 194.596 214.458 192.099C212.334 191.061 212.285 189.26 212.087 187.609L211.398 181.809L212.467 181.008C214.243 179.839 212.246 177.337 210.622 178.679L205.569 182.436C205.395 182.565 205.252 182.725 205.148 182.91C203.961 185.079 203.223 186.962 202.107 188.484C200.998 190.01 199.62 191.439 196.642 192.385C194.844 192.959 194.131 192.613 194.375 191.285L196.323 180.72C196.75 178.392 196.554 178.329 198.446 176.675C198.478 176.645 203.692 172.153 206.786 169.552C208.846 167.826 211.016 168.469 213.163 169.211L232.498 175.819C232.925 175.967 233.395 175.919 233.781 175.699L255.153 163.744C256.874 162.773 255.226 160.3 253.627 161.195L253.628 161.195Z" fill="#E62892" stroke="#E62892" stroke-width="0.5"/>
<defs>
<filter id="filter0_d_362_497" x="0" y="0" width="400" height="400" filterUnits="userSpaceOnUse" color-interpolation-filters="sRGB">
<feFlood flood-opacity="0" result="BackgroundImageFix"/>
<feColorMatrix in="SourceAlpha" type="matrix" values="0 0 0 0 0 0 0 0 0 0 0 0 0 0 0 0 0 0 127 0" result="hardAlpha"/>
<feOffset dy="4"/>
<feGaussianBlur stdDeviation="50"/>
<feComposite in2="hardAlpha" operator="out"/>
<feColorMatrix type="matrix" values="0 0 0 0 0.9 0 0 0 0 0.1575 0 0 0 0 0.572143 0 0 0 0.7 0"/>
<feBlend mode="normal" in2="BackgroundImageFix" result="effect1_dropShadow_362_497"/>
<feBlend mode="normal" in="SourceGraphic" in2="effect1_dropShadow_362_497" result="shape"/>
</filter>
</defs>
</svg>
