<svg
    class="undefined"
    width="200"
    height="60"
    viewBox="0 0 200 60"
    fill="none"
    xmlns="http://www.w3.org/2000/svg"
>
    <path
        d="M82.0964 34.3855L85.7149 21.2639H88.5949L83.4256 39.0096H80.8163L76.9763 25.8638L73.1362 39.0096H70.5269L65.333 21.2639H68.2377L71.8562 34.3855L75.6224 21.2639H78.3301L82.0964 34.3855Z"
        fill="white"
    ></path>
    <path
        d="M91.4009 23.3642C91.1739 23.1454 91.0184 22.865 90.954 22.5589C90.8897 22.2528 90.9195 21.9348 91.0397 21.6455C91.1598 21.3561 91.3649 21.1085 91.6287 20.9341C91.8925 20.7598 92.2031 20.6667 92.5209 20.6667C92.8387 20.6667 93.1494 20.7598 93.4132 20.9341C93.677 21.1085 93.882 21.3561 94.0022 21.6455C94.1224 21.9348 94.1522 22.2528 94.0878 22.5589C94.0235 22.865 93.8679 23.1454 93.6409 23.3642C93.34 23.6584 92.9329 23.8235 92.5086 23.8235C92.0843 23.8235 91.6772 23.6584 91.3763 23.3642H91.4009ZM93.8625 39.0278H91.1794V26.3178H93.8133L93.8625 39.0278Z"
        fill="white"
    ></path>
    <path
        d="M98.8101 38.4959C97.8658 37.9871 97.1273 37.1754 96.7178 36.196L99.0809 34.9129C99.246 35.5291 99.6474 36.0584 100.201 36.3897C100.88 36.8392 101.685 37.0678 102.502 37.0433C103.29 37.0803 104.077 36.9438 104.804 36.6439C105.043 36.5554 105.249 36.3985 105.396 36.1935C105.543 35.9885 105.624 35.7447 105.629 35.4939C105.633 35.3109 105.587 35.1302 105.496 34.9705C105.405 34.8108 105.273 34.678 105.112 34.586C104.652 34.315 104.154 34.1112 103.635 33.9808C103.29 33.8839 102.773 33.7508 102.084 33.5934C101.198 33.3816 100.527 33.2061 100.066 33.0608C99.255 32.826 98.5098 32.412 97.887 31.8503C97.6292 31.5835 97.4295 31.2675 97.3004 30.922C97.1713 30.5764 97.1154 30.2085 97.1362 29.8409C97.1199 29.0916 97.3776 28.3614 97.8624 27.7831C98.3693 27.186 99.0273 26.7309 99.7701 26.4637C100.587 26.158 101.456 26.0061 102.33 26.0158C103.47 26.0002 104.597 26.2534 105.616 26.7542C106.579 27.2118 107.318 28.0257 107.672 29.0178L105.333 30.1496C105.135 29.5385 104.714 29.0211 104.152 28.697C103.544 28.3603 102.855 28.1929 102.158 28.2128C101.542 28.1957 100.932 28.3332 100.386 28.6123C100.163 28.7137 99.9748 28.8761 99.8438 29.0801C99.7128 29.2841 99.6445 29.521 99.6471 29.7623C99.6471 29.8985 99.6793 30.0329 99.7413 30.1547C99.8032 30.2766 99.8932 30.3826 100.004 30.4643C100.405 30.7277 100.851 30.9165 101.321 31.0212L102.675 31.3601C103.39 31.497 104.097 31.6749 104.792 31.8927C105.718 32.1417 106.584 32.5697 107.339 33.1516C107.642 33.4127 107.88 33.738 108.036 34.1029C108.191 34.4678 108.26 34.8627 108.238 35.2578C108.229 35.9486 108.015 36.6218 107.623 37.1946C107.149 37.8647 106.491 38.3893 105.727 38.7077C104.705 39.1376 103.601 39.3441 102.49 39.313C101.213 39.3536 99.9459 39.0724 98.8101 38.4959Z"
        fill="white"
    ></path>
    <path
        d="M120.989 27.0621C122.042 27.7642 122.565 29.0473 122.565 30.9236V39.0096H119.956C119.956 34.0547 119.956 31.4965 119.956 31.3351C119.938 30.5444 119.662 29.7802 119.168 29.1563C118.95 28.8974 118.675 28.6909 118.363 28.5525C118.052 28.414 117.713 28.3473 117.371 28.3573C116.781 28.3588 116.205 28.5269 115.709 28.8415C115.135 29.2071 114.674 29.7225 114.38 30.3304C114.006 31.0961 113.825 31.9388 113.851 32.7877V39.0096H111.192V21.2639H113.826V28.0184C114.267 27.3887 114.865 26.8803 115.562 26.5416C116.178 26.2108 116.866 26.0283 117.568 26.009C118.791 26.0069 119.986 26.3746 120.989 27.0621Z"
        fill="white"
    ></path>
    <path
        d="M141.79 34.3855L145.408 21.2639H148.288L143.119 39.0096H140.51L136.67 25.8638L132.83 39.0096H130.22L125.026 21.2639H127.931L131.55 34.3855L135.316 21.2639H138.024L141.79 34.3855Z"
        fill="white"
    ></path>
    <path
        d="M152.523 38.222C151.624 37.5549 150.94 36.647 150.553 35.6074C149.831 33.7107 149.831 31.6211 150.553 29.7244C150.937 28.6831 151.622 27.7744 152.523 27.1098C153.683 26.3899 155.027 26.0078 156.4 26.0078C157.772 26.0078 159.116 26.3899 160.277 27.1098C161.179 27.7755 161.867 28.6834 162.258 29.7244C162.997 31.6181 162.997 33.7136 162.258 35.6074C161.864 36.6466 161.177 37.5536 160.277 38.222C159.116 38.9419 157.772 39.324 156.4 39.324C155.027 39.324 153.683 38.9419 152.523 38.222ZM159.366 35.801C159.992 34.8668 160.325 33.7726 160.325 32.6538C160.325 31.535 159.992 30.4407 159.366 29.5065C158.991 29.102 158.535 28.7788 158.027 28.5576C157.518 28.3365 156.968 28.2223 156.412 28.2223C155.856 28.2223 155.306 28.3365 154.797 28.5576C154.288 28.7788 153.832 29.102 153.458 29.5065C152.832 30.4407 152.498 31.535 152.498 32.6538C152.498 33.7726 152.832 34.8668 153.458 35.801C153.832 36.2056 154.288 36.5288 154.797 36.7499C155.306 36.9711 155.856 37.0853 156.412 37.0853C156.968 37.0853 157.518 36.9711 158.027 36.7499C158.535 36.5288 158.991 36.2056 159.366 35.801Z"
        fill="white"
    ></path>
    <path
        d="M168.424 28.5027C168.886 27.7539 169.542 27.1394 170.325 26.7224C171.108 26.3055 171.99 26.1011 172.88 26.1302V28.8416C172.676 28.8115 172.47 28.7953 172.264 28.7932C171.683 28.7981 171.108 28.9217 170.578 29.1564C170.02 29.3909 169.524 29.7468 169.126 30.1974C168.734 30.6231 168.481 31.1543 168.4 31.7226V38.9855H165.766V26.2754H168.4L168.424 28.5027Z"
        fill="white"
    ></path>
    <path
        d="M178.394 39.0096H175.76V21.2639H178.394V39.0096Z"
        fill="white"
    ></path>
    <path
        d="M191.489 21.2639H194V39.0096H191.489V37.7265C191.022 38.2649 190.435 38.6894 189.773 38.9666C189.111 39.2439 188.392 39.3663 187.674 39.3243C186.361 39.3998 185.063 39.0089 184.018 38.2228C183.177 37.5463 182.556 36.6412 182.234 35.6202C181.608 33.6992 181.608 31.6341 182.234 29.7131C182.556 28.6921 183.177 27.787 184.018 27.1105C185.062 26.3215 186.36 25.9302 187.674 26.009C188.392 25.9663 189.11 26.0878 189.772 26.364C190.434 26.6401 191.022 27.0635 191.489 27.6008V21.2639ZM190.665 35.826C191.221 34.8631 191.514 33.7744 191.514 32.6667C191.514 31.5589 191.221 30.4702 190.665 29.5073C190.364 29.0796 189.955 28.737 189.478 28.5139C189 28.2909 188.472 28.1951 187.945 28.2363C187.405 28.1976 186.863 28.2951 186.372 28.5197C185.881 28.7442 185.457 29.0883 185.138 29.5194C184.543 30.4649 184.228 31.5547 184.228 32.6667C184.228 33.7786 184.543 34.8685 185.138 35.8139C185.458 36.2437 185.883 36.5869 186.373 36.8113C186.864 37.0357 187.405 37.134 187.945 37.097C188.472 37.1382 189 37.0424 189.478 36.8194C189.955 36.5963 190.364 36.2537 190.665 35.826Z"
        fill="white"
    ></path>
    <path
        d="M4.26615 20.9764C4.15961 20.9443 4.0474 20.9354 3.93714 20.9505C3.82688 20.9656 3.72115 21.0042 3.62712 21.0638C3.53309 21.1233 3.45296 21.2024 3.39216 21.2957C3.33137 21.389 3.29134 21.4943 3.27478 21.6044C2.29512 28.4288 3.95619 35.3701 7.91856 41.0097C11.8809 46.6494 17.8455 50.5618 24.5934 51.9473C24.7027 51.9694 24.8156 51.9677 24.9242 51.9423C25.0329 51.9169 25.1348 51.8684 25.2231 51.8001C25.3114 51.7318 25.3839 51.6453 25.4359 51.5464C25.4878 51.4476 25.5179 51.3387 25.5241 51.2272C25.5534 50.6913 25.568 50.1512 25.568 49.607C25.5672 43.1761 23.4941 36.917 19.6565 31.7592C15.819 26.6014 10.4217 22.8199 4.26615 20.9764Z"
        fill="url(#paint0_linear_550_10775)"
    ></path>
    <path
        d="M55.8022 20.9764C55.9088 20.9443 56.021 20.9354 56.1312 20.9505C56.2415 20.9656 56.3472 21.0042 56.4412 21.0638C56.5353 21.1233 56.6154 21.2024 56.6762 21.2957C56.737 21.389 56.777 21.4943 56.7936 21.6044C57.7732 28.4288 56.1122 35.3701 52.1498 41.0097C48.1874 46.6494 42.2229 50.5618 35.475 51.9473C35.3656 51.9694 35.2528 51.9677 35.1441 51.9423C35.0355 51.9169 34.9336 51.8684 34.8453 51.8001C34.757 51.7318 34.6844 51.6453 34.6325 51.5464C34.5806 51.4476 34.5505 51.3387 34.5443 51.2272C34.515 50.6913 34.5004 50.1512 34.5004 49.607C34.5012 43.1761 36.5743 36.917 40.4118 31.7592C44.2494 26.6014 49.6467 22.8199 55.8022 20.9764Z"
        fill="url(#paint1_linear_550_10775)"
    ></path>
    <path
        d="M9.66656 8.03564C7.68614 10.2094 6.08032 12.6973 4.91469 15.3979C4.88409 15.4704 4.86827 15.5482 4.86816 15.6269C4.86806 15.7055 4.88366 15.7834 4.91405 15.856C4.94445 15.9285 4.98903 15.9943 5.04517 16.0493C5.10131 16.1044 5.16788 16.1477 5.24096 16.1766C12.1857 19.041 18.1239 23.9055 22.3022 30.153C26.4805 36.4004 28.7106 43.7492 28.7096 51.2672C28.7096 51.4765 28.7096 51.6858 28.7096 51.8951C28.7076 51.9739 28.7215 52.0522 28.7502 52.1256C28.779 52.1989 28.8221 52.2657 28.8771 52.3221C28.932 52.3785 28.9977 52.4233 29.0703 52.4538C29.1428 52.4844 29.2207 52.5001 29.2994 52.5001C29.8808 52.5001 30.4574 52.4813 31.0291 52.4436C31.1714 52.4339 31.3054 52.373 31.4065 52.2723C31.5076 52.1715 31.5689 52.0376 31.5791 51.8951C31.6607 50.7354 31.7046 49.5653 31.7046 48.3867C31.7105 40.4242 29.777 32.5802 26.0713 25.5341C22.3657 18.4881 16.9998 12.4524 10.4383 7.94981C10.3209 7.86861 10.1782 7.83258 10.0364 7.84835C9.89461 7.86412 9.76326 7.93063 9.66656 8.03564Z"
        fill="url(#paint2_linear_550_10775)"
    ></path>
    <path
        d="M31.0312 52.4016C31.1971 52.3895 31.3523 52.3149 31.4655 52.193C31.5788 52.0711 31.6418 51.9108 31.6419 51.7443V51.2273C31.641 43.8525 33.7215 36.6275 37.6438 30.3845C41.5661 24.1414 47.1706 19.1344 53.8117 15.9399C54.0031 15.8487 54.1527 15.6882 54.2303 15.4908C54.308 15.2934 54.3079 15.0738 54.23 14.8765C53.2046 12.3242 51.8008 9.94102 50.0659 7.80735C49.9309 7.64209 49.7379 7.53467 49.5264 7.50704C49.315 7.47942 49.1009 7.53367 48.9281 7.65872C42.6044 12.3642 37.4692 18.4861 33.9336 25.5344C30.398 32.5828 28.5602 40.3617 28.5674 48.2484C28.5674 49.6342 28.626 51.0075 28.7347 52.366L28.8707 52.4916C29.5957 52.4902 30.3159 52.4602 31.0312 52.4016Z"
        fill="url(#paint3_linear_550_10775)"
    ></path>
    <defs>
        <linearGradient
            id="paint0_linear_550_10775"
            x1="14.2823"
            y1="20.9429"
            x2="14.2823"
            y2="51.964"
            gradientUnits="userSpaceOnUse"
        >
            <stop stop-color="#FF76C2"></stop>
            <stop offset="1" stop-color="#9A0056"></stop>
        </linearGradient>
        <linearGradient
            id="paint1_linear_550_10775"
            x1="45.7861"
            y1="20.9429"
            x2="45.7861"
            y2="51.964"
            gradientUnits="userSpaceOnUse"
        >
            <stop stop-color="#FF76C2"></stop>
            <stop offset="1" stop-color="#9A0056"></stop>
        </linearGradient>
        <linearGradient
            id="paint2_linear_550_10775"
            x1="4.86659"
            y1="30.1684"
            x2="31.6983"
            y2="30.1684"
            gradientUnits="userSpaceOnUse"
        >
            <stop stop-color="#FF76C2"></stop>
            <stop offset="1" stop-color="#6A003B"></stop>
        </linearGradient>
        <linearGradient
            id="paint3_linear_550_10775"
            x1="28.559"
            y1="29.9946"
            x2="54.2865"
            y2="29.9946"
            gradientUnits="userSpaceOnUse"
        >
            <stop stop-color="#9A0056"></stop>
            <stop offset="1" stop-color="#FF76C2"></stop>
        </linearGradient>
    </defs>
</svg>
