<svg width="480" height="400" viewBox="0 0 480 400" fill="none" xmlns="http://www.w3.org/2000/svg">
<path d="M310 132.001L329.999 112L349.999 131.999L330.001 152L310 132.001Z" stroke="#E62892" stroke-width="5" stroke-linejoin="round"/>
<g opacity="0.5">
<path d="M330 261.001L359.999 231L389.998 260.999L360.001 291L330 261.001Z" stroke="#E62892" stroke-width="5" stroke-linejoin="round"/>
</g>
<path d="M16 246L25.9997 236L35.9994 246L26.0003 256L16 246Z" stroke="#E62892" stroke-width="5" stroke-linejoin="round"/>
<g opacity="0.3">
<path d="M70 96.0003L79.9997 86L89.9994 95.9997L80.0003 106L70 96.0003Z" stroke="#E62892" stroke-width="5" stroke-linejoin="round"/>
</g>
<g filter="url(#filter0_d_303_2998)">
<circle cx="200" cy="196" r="100" fill="black"/>
<circle cx="200" cy="196" r="97.5" stroke="#E62892" stroke-width="5"/>
</g>
<path d="M215 156.606C215 151.394 208.467 149.015 205.081 152.989L189.759 170.992C189.055 171.819 188.178 172.484 187.19 172.939C186.202 173.395 185.126 173.632 184.036 173.632H170C166.022 173.632 162.206 175.203 159.393 178C156.58 180.796 155 184.589 155 188.544V203.457C155 207.412 156.58 211.205 159.393 214.001C162.206 216.798 166.022 218.369 170 218.369H184.036C185.126 218.37 186.202 218.606 187.19 219.062C188.178 219.517 189.055 220.182 189.759 221.009L205.081 239.008C208.464 242.986 215 240.607 215 235.395V156.606Z" stroke="#E62892" stroke-width="5"/>
<path d="M227.5 181C231.273 185.423 236.555 197.615 227.5 211" stroke="#E62892" stroke-width="5" stroke-linecap="round"/>
<path d="M235 166C242.546 174.846 253.111 199.231 235 226" stroke="#E62892" stroke-width="5" stroke-linecap="round"/>
<defs>
<filter id="filter0_d_303_2998" x="0" y="0" width="400" height="400" filterUnits="userSpaceOnUse" color-interpolation-filters="sRGB">
<feFlood flood-opacity="0" result="BackgroundImageFix"/>
<feColorMatrix in="SourceAlpha" type="matrix" values="0 0 0 0 0 0 0 0 0 0 0 0 0 0 0 0 0 0 127 0" result="hardAlpha"/>
<feOffset dy="4"/>
<feGaussianBlur stdDeviation="50"/>
<feComposite in2="hardAlpha" operator="out"/>
<feColorMatrix type="matrix" values="0 0 0 0 0.9 0 0 0 0 0.1575 0 0 0 0 0.572143 0 0 0 0.7 0"/>
<feBlend mode="normal" in2="BackgroundImageFix" result="effect1_dropShadow_303_2998"/>
<feBlend mode="normal" in="SourceGraphic" in2="effect1_dropShadow_303_2998" result="shape"/>
</filter>
</defs>
</svg>
